<svg xmlns="http://www.w3.org/2000/svg" xmlns:xlink="http://www.w3.org/1999/xlink" viewBox="0,0,256,256" width="80px" height="80px" fill-rule="nonzero"><g fill="#ffffff" fill-rule="nonzero" stroke="none" stroke-width="1" stroke-linecap="butt" stroke-linejoin="miter" stroke-miterlimit="10" stroke-dasharray="" stroke-dashoffset="0" font-family="none" font-weight="none" font-size="none" text-anchor="none" style="mix-blend-mode: normal"><g transform="scale(3.2,3.2)"><path d="M43.36133,12.00195c-0.67427,-0.0167 -1.334,0.09077 -1.94336,0.3125c-1.62497,0.59127 -2.91062,2.08135 -3,4.01367c-0.0251,0.54444 0.08746,1.1249 0.25195,1.71094c-0.84388,-0.13222 -1.67253,0.02843 -2.29102,0.43555c-0.74043,0.4874 -1.27379,1.16927 -1.65039,1.8457c-1.02381,1.8373 -1.27659,3.55984 -1.33984,4.8457c-0.03164,0.64314 -0.0198,1.18289 -0.0332,1.54688c-0.00663,0.1801 -0.0396,0.3041 -0.05273,0.36328c-0.05694,0.0063 -0.10248,0.0142 -0.23437,0.01367c-0.20847,-0.00092 -0.45831,-0.01559 -0.76172,0.01758c-0.30173,0.03298 -0.76519,0.10582 -1.12109,0.57227c-0.01849,0.03093 -0.12882,0.21463 -0.12891,0.21484c-0.0001,0.00023 -0.01877,0.05106 -0.02344,0.06445c-0.0093,0.02679 -0.01264,0.03686 -0.01562,0.04688c-0.0059,0.02004 -0.0089,0.03049 -0.01172,0.04102c-0.0056,0.02105 -0.01003,0.03948 -0.01562,0.0625c-0.01119,0.04604 -0.02427,0.10703 -0.04102,0.18164c-0.03347,0.14923 -0.07847,0.35645 -0.12695,0.60547c-0.09697,0.49804 -0.20981,1.16021 -0.2832,1.84961c-0.07339,0.6894 -0.11549,1.39461 -0.02734,2.05469c0.04407,0.33004 0.11481,0.65372 0.29492,0.98633c0.1126,0.20793 0.39947,0.3436 0.63867,0.50781c-0.10183,0.1716 -0.34511,0.33362 -0.37695,0.46289c-0.0657,0.26667 -0.08,0.50874 -0.08594,0.77344c-0.01188,0.5294 0.03476,1.13812 0.0957,1.75977c0.06094,0.62165 0.139,1.24974 0.20117,1.76563c0.02453,0.20357 0.02431,0.23449 0.04102,0.39844c-0.30727,0.24167 -0.4748,0.47131 -0.57617,0.69727c-0.1281,0.28554 -0.23374,0.60559 -0.32422,0.95508c-0.18097,0.69897 -0.31378,1.47392 -0.19922,2.24609c0,0.00065 0,0.0013 0,0.00195c0.07462,0.4942 0.43082,0.82256 0.74219,1.0293c-0.08606,0.60609 -0.21317,1.25985 -0.37695,2.05273c-0.2099,1.01614 -0.40635,2.11483 -0.08594,3.2207c0.06122,0.21133 0.04313,0.17049 0.00781,0.25c-0.03531,0.07951 -0.18152,0.27278 -0.38867,0.60156c-0.25748,0.40936 -0.34733,0.7911 -0.36133,0.83203c-0.01402,0.04101 0.04063,-0.0013 -0.24805,0.27539c-0.07489,0.07181 -0.13814,0.15483 -0.1875,0.24609c-0.38335,0.70664 -0.76449,1.41314 -1.14648,2.11914c-0.01653,0.02981 -0.03152,0.06045 -0.04492,0.0918c-0.20259,0.48679 -0.20512,0.89988 -0.22656,1.23633c-0.02144,0.33645 -0.05473,0.59886 -0.08398,0.68164c-0.12372,0.35135 -0.55964,0.96688 -0.88672,1.74609c-0.16354,0.38961 -0.30061,0.84984 -0.27148,1.375c0.01777,0.32037 0.23972,0.62368 0.39844,0.9375c-0.0033,0.01966 -0.00417,0.02416 -0.00977,0.05273c-0.02479,0.12702 -0.0699,0.32723 -0.12891,0.56445c-0.11801,0.47444 -0.28856,1.10541 -0.46289,1.75195c-0.17433,0.64654 -0.35368,1.3076 -0.49219,1.86523c-0.13851,0.55763 -0.24824,0.8788 -0.25781,1.36914c0,0.00065 0,0.0013 0,0.00195c-0.0077,0.424 0.0493,0.90277 0.33789,1.35938c0.28859,0.45661 0.84047,0.79886 1.41992,0.88281c0.60935,0.08871 1.39017,0.1334 2.12305,0.07617c0.36644,-0.02861 0.71607,-0.07613 1.07227,-0.20312c0.35619,-0.12699 0.89424,-0.38983 1.02734,-1.07227c0,-0.00065 0,-0.0013 0,-0.00195c0.10089,-0.51817 -0.03191,-0.98575 -0.15625,-1.28711c-0.10224,-0.24779 -0.16142,-0.36205 -0.19727,-0.44336v-2.10937c0.05396,-0.15229 0.21402,-0.56973 0.38477,-1c0.07551,-0.19027 0.14417,-0.36821 0.20898,-0.53906c0.11543,0.0033 0.23821,0.01293 0.44727,-0.03516c0.25925,-0.05962 0.62414,-0.25791 0.83008,-0.56055c0.4285,-0.62931 0.48673,-1.25156 0.58789,-1.8457c0.10126,-0.59472 0.20199,-1.16492 0.36328,-1.55273c0.24034,-0.57639 0.47895,-1.20972 0.66602,-1.85742c0.11923,-0.40828 0.03877,-0.57067 0.00781,-0.7207c-0.03095,-0.15003 -0.06444,-0.26724 -0.08789,-0.36523c-0.01408,-0.05883 -0.01959,-0.06904 -0.02539,-0.08008c0.02552,-0.03618 0.05147,-0.07251 0.07617,-0.10742c0.03537,-0.04982 0.06609,-0.10278 0.0918,-0.1582c0.17474,-0.37905 0.24888,-0.60599 0.24805,-0.67773c0.35927,-0.27119 0.64133,-0.53103 0.79102,-0.83203c0.15044,-0.30252 0.18352,-0.44016 0.28711,-0.66602c0.0224,-0.01951 0.01865,-0.02559 0.05859,-0.04687c0.1919,-0.10225 0.56364,-0.24613 0.83594,-0.75586c0.24352,-0.45686 0.24765,-0.87011 0.25781,-1.1543c0.01012,-0.28317 0.02352,-0.46307 0.04492,-0.53711v-0.00195c0.11897,-0.40427 0.41951,-1.28843 0.74609,-2.13477c0.25901,-0.67123 0.5046,-1.17272 0.69141,-1.53711c0.03549,0.0347 0.03896,0.08609 0.08008,0.12109c0.36292,0.30893 0.73307,0.41909 1.25781,0.63672c0.04793,0.06454 0.10762,0.14647 0.18555,0.25977c0.18523,0.26931 0.42828,0.63987 0.67383,1.01953c0.49109,0.75933 0.98422,1.54472 1.10352,1.73242c0.37597,0.59126 0.72579,1.07546 1.32422,1.32227c0.40217,0.16586 0.76557,0.11702 1.13672,0.11133c0.00073,0.0037 0.01089,0.01358 0.01172,0.01758c0.01246,0.05995 0.01837,0.25161 -0.05078,0.63867c-0.01038,0.05802 -0.01561,0.11684 -0.01562,0.17578v0.50391c-0.13159,0.12662 -0.34129,0.30819 -0.45508,0.69141h0.00195c-0.27177,0.91084 0.04905,1.61208 0.04883,1.60742c0.03048,0.65431 0.02281,1.33075 0.20703,2.04297c0.005,0.40052 0.03208,0.89835 0.14453,1.42578c0.08872,0.41612 0.2696,0.85219 0.56641,1.25586c0.02235,0.42475 0.06209,0.96372 0.09961,1.57031c0.02235,0.3614 0.0397,0.7106 0.04492,0.9707c0.002,0.09985 -0.00044,0.16828 -0.00195,0.23242c-0.06299,0.10054 -0.12568,0.2013 -0.18945,0.30273c-0.04352,0.06969 -0.07829,0.14447 -0.10352,0.22266c-0.07537,0.23129 -0.09351,0.37474 -0.13867,0.61914c-0.04517,0.24441 -0.09335,0.53307 -0.13867,0.82031c-0.04532,0.28724 -0.08779,0.57051 -0.11914,0.80664c-0.03135,0.23613 -0.05876,0.32775 -0.05664,0.59961c0.00367,0.42646 0.27736,0.80367 0.68164,0.93945c0.25029,0.08384 1.1025,0.35392 2.20313,0.35156c0.17579,-0.00084 0.34825,-0.048 0.5,-0.13672c1.02016,0.22786 2.97879,1.21521 5.80273,0.33789c0.31741,-0.09907 0.56483,-0.34941 0.66016,-0.66797c0.15119,-0.50543 0.18846,-1.02537 0.00195,-1.50391c-0.18655,-0.47853 -0.57415,-0.80034 -0.9043,-0.97656c-0.66029,-0.35244 -1.2346,-0.41487 -1.50977,-0.53906c0.2717,0.12255 0.0046,-0.01174 -0.16992,-0.1875c-0.17454,-0.17576 -0.39545,-0.41958 -0.60742,-0.66992c-0.21198,-0.25035 -0.41762,-0.51095 -0.56641,-0.7168c-0.089,-0.12313 -0.15476,-0.2541 -0.18359,-0.30273c0.00126,-0.05394 -0.04695,-0.58465 -0.02539,-1.13672c0.01906,-0.48789 0.04771,-0.96873 0.06055,-1.41016c0.0687,-0.08831 0.13593,-0.1409 0.21289,-0.32812c0.11297,-0.27484 0.11395,-0.48372 0.11133,-0.69336c0.22245,-0.64171 0.12063,-1.28032 0.01172,-1.66602c-0.12719,-0.45042 -0.17508,-0.64123 -0.14453,-0.77734c0,-0.00065 0,-0.0013 0,-0.00195c0.10486,-0.47131 0.2185,-1.0932 0.31445,-1.52734c0.01569,-0.0712 0.02355,-0.14389 0.02344,-0.2168v-0.79492c0.02137,-0.06428 0.04321,-0.12789 0.06445,-0.19336c0.03234,-0.09967 0.04882,-0.20381 0.04883,-0.30859v-1.00195c0.04172,-0.16824 0.0913,-0.35876 0.12695,-0.63086c0.04493,-0.34288 0.09172,-0.72671 -0.06055,-1.21484c-0.02382,-0.07589 -0.0566,-0.14867 -0.09766,-0.2168c-0.12513,-0.2079 -0.12817,-0.35457 -0.17578,-0.71875c-0.0238,-0.18209 -0.03223,-0.46392 -0.29687,-0.81445c-0.0794,-0.10517 -0.22482,-0.0829 -0.33789,-0.15625c-0.57122,-0.79204 -0.83752,-1.84093 -1.37305,-3.26758c-0.52696,-1.40383 -1.35771,-3.09434 -3.0918,-4.94727c-0.01863,-0.04186 -0.04547,-0.09901 -0.0625,-0.16602c-0.03363,-0.13234 -0.06042,-0.30937 -0.08008,-0.47656c0.14082,0.03906 0.18146,0.10217 0.37305,0.10352c0.26532,0.0015 0.52036,-0.10248 0.70898,-0.28906c0.48624,-0.48028 0.65772,-1.01714 0.8457,-1.64453c0.18798,-0.62739 0.32837,-1.33902 0.42578,-2.05859c0.09741,-0.71957 0.15042,-1.44245 0.15039,-2.08789c-0.00003,-0.60516 -0.03762,-1.10288 -0.21094,-1.61328c0.07817,0.04131 0.15927,0.09981 0.24219,0.13672c0.57084,0.25431 1.05912,0.54124 1.56836,0.7832c0.50924,0.24197 1.10169,0.48611 1.8125,0.34375c0.6131,-0.12168 0.742,-0.33159 1.06445,-0.58398c0.32246,-0.25239 0.67118,-0.5671 1.01367,-0.91211c0.34249,-0.34501 0.67491,-0.71719 0.95313,-1.0957c0.27821,-0.37852 0.52589,-0.72332 0.62695,-1.26172h-0.00195c0.07477,-0.39745 0.01712,-0.51413 0.00781,-0.81055c0.0084,-0.0019 0.02323,-0.00611 0.03125,-0.00781c0.28765,-0.05951 0.56207,-0.27607 0.70313,-0.49609c0.16422,-0.2596 0.21523,-0.60724 0.13867,-0.88477c-0.2549,-0.97964 -0.25061,-1.29681 -0.26367,-2.02148c0.09005,-0.05393 0.23035,-0.13262 0.34766,-0.22461c0.17607,-0.13806 0.2889,-0.33473 0.4082,-0.50586h4.60352c0.42187,-0.00106 0.7977,-0.26672 0.93945,-0.66406h0.92969c0.26875,0.00049 0.52639,-0.10722 0.71484,-0.29883h1.65234c0.1875,0.19065 0.44354,0.29827 0.71094,0.29883h0.49609c0.17393,0.00026 0.34492,-0.04484 0.49609,-0.13086h0.91016c0.55226,-0.00006 0.99994,-0.44774 1,-1v-0.79297c-0.00006,-0.55226 -0.44774,-0.99994 -1,-1h-0.91016c-0.1506,-0.08569 -0.32087,-0.13078 -0.49414,-0.13086h-0.49609c-0.26808,0.00004 -0.52491,0.1077 -0.71289,0.29883h-1.36523v-0.59961c-0.0006,-0.53515 -0.42237,-0.975 -0.95703,-0.99805v-0.74609c-0.00006,-0.55226 -0.44774,-0.99994 -1,-1h-0.41797c-0.55226,0.00006 -0.99994,0.44774 -1,1v0.58789h-9.64453l0.01758,0.5c-0.01704,-0.44397 -0.32494,-0.82346 -0.75586,-0.93164v-0.15625c-0.00006,-0.55226 -0.44774,-0.99994 -1,-1h-0.29102c-0.17344,0.00067 -0.34373,0.04644 -0.49414,0.13281c-0.0014,-0.31183 0.0098,-0.63439 -0.04492,-0.90234c-0.16444,-0.80499 -0.44906,-1.51571 -0.5,-1.7832c-0.04562,-0.24342 -0.17994,-0.46126 -0.37695,-0.61133c-0.35045,-0.26604 -0.67394,-0.39486 -0.99609,-0.52539c-0.79589,-0.55089 -1.66001,-0.8885 -2.52148,-1.01562c-0.22669,-0.03345 -0.45298,-0.05303 -0.67773,-0.05859zM43.30859,14c0.14325,0.00328 0.2889,0.0157 0.43555,0.03711c0.58659,0.08563 1.19338,0.3196 1.76563,0.73633c0.06461,0.04798 0.13478,0.08798 0.20898,0.11914c0.23764,0.09713 0.29232,0.13758 0.38867,0.1875c0.13194,0.45962 0.28681,0.92291 0.36719,1.31641c0.1011,0.4949 0.05211,0.75637 -0.09961,0.98047c-0.32855,0.12592 -0.67595,0.22418 -0.95312,0.42383c-0.25677,0.18565 -0.41038,0.48199 -0.41406,0.79883c-0.0015,0.11507 -0.0061,0.19299 0.01563,0.3418c0.0055,0.03796 0.03448,0.10842 0.04883,0.16211c-0.0064,0.02364 -0.066,0.06529 -0.07031,0.08398c-0.03722,0.1614 -0.03131,0.25132 -0.02734,0.33008c0.0079,0.15752 0.004,0.22123 0.0957,0.44141c0.12841,0.30755 0.40159,0.53093 0.72852,0.5957c1.02467,0.20466 1.8668,-0.10406 2.43164,-0.33008h0.45117c0.21995,-0.00097 0.43344,-0.07442 0.60742,-0.20898c0.18951,0.21448 0.46184,0.33749 0.74805,0.33789h10.11719l-0.00195,1.17578h-3.86328c-0.15673,-0.00004 -0.31128,0.03676 -0.45117,0.10742c-0.04254,0.02153 -0.02429,0.01399 -0.04297,0.01758c-0.25566,0.04938 -0.48199,0.19652 -0.63086,0.41016c-0.30145,0.43174 -0.3202,0.44388 -0.25977,0.39648c0.06044,-0.04739 -0.19515,0.09881 -0.74023,0.46875c-0.27538,0.18642 -0.44009,0.49753 -0.43945,0.83008c0.0014,0.99338 0.1467,1.50167 0.2793,2.12891c-0.51866,0.10266 -0.86781,0.59129 -0.79687,1.11523c-0.01236,-0.09066 0.06282,0.78361 0.00195,1.10742c0.01406,-0.0749 -0.07635,0.18178 -0.27148,0.44727c-0.19513,0.26548 -0.47334,0.5806 -0.76172,0.87109c-0.28838,0.29049 -0.59099,0.55853 -0.82812,0.74414c-0.11104,0.08691 -0.23683,0.14669 -0.31055,0.18359c-0.07877,-0.01428 -0.21064,-0.04839 -0.47461,-0.17383c-0.38626,-0.18353 -0.92713,-0.49705 -1.61328,-0.80273c0.01566,0.007 -0.44021,-0.25192 -0.86328,-0.49805c-0.42307,-0.24612 -0.85755,-0.50731 -1.33984,-0.66992c-0.3359,-0.11334 -0.72411,-0.06355 -0.99023,0.06445c-0.26613,0.128 -0.43973,0.30502 -0.57227,0.48047c-0.26507,0.35089 -0.39621,0.7269 -0.41797,1.16602c0,0.00065 0,0.0013 0,0.00195c-0.02263,0.46018 0.18064,1.19088 0.80469,1.52539c0.00065,0 0.0013,0 0.00195,0c0.26712,0.14271 0.41573,0.28647 0.44727,0.28125c0.01999,0.09051 0.08591,0.46722 0.08594,0.95117c0.00003,0.53166 -0.04647,1.18251 -0.13281,1.82031c-0.08634,0.6378 -0.21392,1.2665 -0.35937,1.75195c-0.06772,0.22603 -0.08791,0.2298 -0.15625,0.37109c-0.23291,-0.09899 -0.44403,-0.25367 -0.88672,-0.10937c-0.0609,0.01971 -0.11976,0.04521 -0.17578,0.07617c-0.52519,0.29187 -0.68959,0.77659 -0.76172,1.13672c-0.07213,0.36013 -0.06681,0.69244 -0.03906,1.01172c0.02775,0.31927 0.08282,0.62084 0.15039,0.88672c0.06757,0.26588 0.08253,0.43644 0.30859,0.76953c0.03142,0.0465 0.0667,0.09028 0.10547,0.13086c1.63942,1.70873 2.31664,3.11651 2.80664,4.42188c0.49,1.30537 0.75911,2.58113 1.65039,3.79102c0.08749,0.11889 0.20021,0.21694 0.33008,0.28711c0.02916,0.25057 0.05693,0.58916 0.26367,1.01172c-0.01069,-0.02103 0.00984,0.1436 -0.01562,0.33789c-0.02707,0.20662 -0.0783,0.42734 -0.10937,0.54492c-0.02207,0.0835 -0.03323,0.1695 -0.0332,0.25586v0.92969c-0.02042,0.06165 -0.04157,0.12331 -0.0625,0.18555c-0.03403,0.10268 -0.05118,0.21019 -0.05078,0.31836v0.85352c-0.10232,0.47668 -0.2085,1.03926 -0.29102,1.41016c-0.17545,0.78188 0.07182,1.40544 0.17188,1.75977c0.10006,0.35433 0.11075,0.35178 0.03906,0.48242c-0.08071,0.14728 -0.12302,0.31252 -0.12305,0.48047c0,0.07195 -0.00239,0.07615 -0.00391,0.10938c-0.0308,0.04491 -0.05651,0.08351 -0.11914,0.16992c-0.1236,0.17107 -0.18991,0.37685 -0.18945,0.58789c0,0.33946 -0.04704,1.00074 -0.07227,1.64648c-0.02522,0.64574 -0.0881,1.2042 0.11719,1.86133c0.13577,0.43446 0.27775,0.56192 0.46875,0.82617c0.191,0.26425 0.42246,0.55486 0.66211,0.83789c0.23965,0.28303 0.48635,0.55507 0.71484,0.78516c0.22849,0.23009 0.29992,0.39152 0.76563,0.60156c0.23269,0.10502 0.29256,0.10585 0.49023,0.16992c-1.47051,-0.01985 -2.56927,-0.73716 -4.13867,-0.75977c-0.20689,-0.00282 -0.40956,0.05859 -0.58008,0.17578c-0.11387,-0.01572 -0.17617,-0.02556 -0.27344,-0.04492c0.01388,-0.09231 0.02408,-0.16869 0.03906,-0.26367c0.04318,-0.27363 0.0904,-0.54864 0.13086,-0.76758c0.03156,-0.17077 0.05316,-0.25185 0.05859,-0.2832c0.07559,-0.12032 0.15085,-0.2417 0.22656,-0.36328c0.04023,-0.06443 0.073,-0.13323 0.09766,-0.20508c0.09105,-0.26674 0.0738,-0.35784 0.08008,-0.49414c0.0063,-0.1363 0.00701,-0.27707 0.00391,-0.43359c-0.0063,-0.31305 -0.02568,-0.68046 -0.04883,-1.05469c-0.04629,-0.74845 -0.10956,-1.55727 -0.11719,-1.80859c-0.00877,-0.30578 -0.157,-0.59073 -0.40234,-0.77344c0.07357,0.05477 -0.10673,-0.1674 -0.18555,-0.53711c-0.07882,-0.36971 -0.10742,-0.83192 -0.10742,-1.14258c-0.00047,-0.09663 -0.01494,-0.19268 -0.04297,-0.28516c-0.10591,-0.35429 -0.12484,-0.96051 -0.16016,-1.71875c-0.03041,-0.65011 -0.10144,-0.90246 -0.12305,-0.89062c0.09879,-0.08904 0.33008,-0.24566 0.47656,-0.67969c0.0347,-0.10257 0.05251,-0.21008 0.05273,-0.31836v-0.76562c0.07209,-0.42856 0.11717,-0.8359 0.02539,-1.27734c-0.10054,-0.48355 -0.38441,-0.91954 -0.71875,-1.25781c-0.19114,-0.19334 -0.45276,-0.30052 -0.72461,-0.29687c-0.65504,0.0087 -0.91507,-0.02168 -0.90039,-0.01562c0.01467,0.0061 -0.07436,-0.03219 -0.40039,-0.54492c-0.09871,-0.1553 -0.60967,-0.97043 -1.11133,-1.74609c-0.25083,-0.38783 -0.50116,-0.76904 -0.70703,-1.06836c-0.10293,-0.14966 -0.19277,-0.27609 -0.27734,-0.38672c-0.04228,-0.05531 -0.08226,-0.10555 -0.13477,-0.16406c-0.0525,-0.05851 0.0011,-0.1195 -0.38867,-0.29297c-0.00065,0 -0.0013,0 -0.00195,0c-0.76587,-0.33844 -1.03224,-0.4755 -0.99219,-0.44141c0.04006,0.0341 -0.03901,-0.08874 -0.38086,-0.70312c-0.1832,-0.32798 -0.53474,-0.52563 -0.91016,-0.51172c-0.00084,0.00003 -0.12603,0.01179 -0.15625,0.01758c-0.03022,0.0058 -0.05035,0.01096 -0.06836,0.01563c-0.03601,0.0093 -0.06069,0.01685 -0.08594,0.02539c-0.05049,0.01709 -0.09642,0.03603 -0.14648,0.05859c-0.10014,0.04513 -0.21315,0.10564 -0.33594,0.18945c-0.24557,0.16763 -0.53004,0.42848 -0.7793,0.80664h0.00195c-0.39088,0.5922 -0.72516,1.42584 -1.07031,2.32031c-0.34515,0.89447 -0.64955,1.77878 -0.80078,2.29297c0,0.00065 0,0.0013 0,0.00195c-0.12846,0.43847 -0.11471,0.79599 -0.12305,1.0293c-0.00609,0.17063 -0.01639,0.18666 -0.01953,0.20703c-0.00909,0.00512 -0.00369,0.00145 -0.01562,0.00781c-0.1431,0.07625 -0.45521,0.05655 -0.79297,0.67578c-0.30502,0.55692 -0.41119,0.92597 -0.4043,0.91211c0.0069,-0.01388 0.058,-0.02442 -0.40234,0.28711c-0.08938,0.05984 -0.16852,0.1337 -0.23437,0.21875c-0.43955,0.57215 -0.40164,0.93554 -0.40039,0.99023c-0.05393,0.07651 -0.10797,0.1528 -0.16016,0.22656c-0.03537,0.04982 -0.06609,0.10278 -0.0918,0.1582c-0.29012,0.6286 -0.11448,1.04757 -0.04687,1.33008c0.02378,0.09939 0.03825,0.15378 0.05273,0.21289c-0.1517,0.49849 -0.33765,1.01306 -0.53906,1.49609c0,0.00065 0,0.0013 0,0.00195c-0.29371,0.70619 -0.3925,1.41034 -0.49023,1.98438c-0.07824,0.45953 -0.1603,0.69285 -0.21484,0.8457c-0.2531,-0.006 -0.56809,-0.05185 -0.98828,0.22266c-0.25158,0.16452 -0.41583,0.43347 -0.44727,0.73242c0.03149,-0.29601 -0.0016,-0.02367 -0.06445,0.14648c-0.06286,0.17015 -0.15273,0.39558 -0.24609,0.63086c-0.18674,0.47056 -0.37559,0.91754 -0.48242,1.27148c-0.0284,0.09373 -0.04288,0.19112 -0.04297,0.28906v2.48047c-0.0001,0.09859 0.01438,0.19666 0.04297,0.29102c0.07761,0.25543 0.14651,0.36815 0.21289,0.50195c-0.06557,0.009 -0.08349,0.02151 -0.1582,0.02734c-0.52537,0.04102 -1.23609,0.0037 -1.67773,-0.06055c-0.00065,0 -0.0013,0 -0.00195,0c-0.02283,-0.00331 -0.01162,0.00051 -0.02148,0c0.00005,-0.00548 -0.02835,-0.06514 -0.02539,-0.22852c-0.0023,0.12891 0.07057,-0.39802 0.20117,-0.92383c0.13087,-0.52687 0.30825,-1.18216 0.48242,-1.82812c0.17417,-0.64596 0.34629,-1.281 0.47266,-1.78906c0.06319,-0.25403 0.11338,-0.47445 0.15039,-0.66406c0.0185,-0.09481 0.03412,-0.18107 0.04492,-0.27734c0.01081,-0.09628 0.06756,-0.13833 -0.0293,-0.48633c-0.04016,-0.14437 -0.11225,-0.27786 -0.21094,-0.39062c-0.1463,-0.16678 -0.15471,-0.23195 -0.16016,-0.33008c-0.0054,-0.09812 0.02343,-0.26026 0.11914,-0.48828c0.19118,-0.45546 0.64537,-1.05534 0.92773,-1.85547c0.16974,-0.48022 0.1745,-0.8922 0.19531,-1.21875c0.0204,-0.32012 0.06189,-0.54647 0.07617,-0.58594c0.35273,-0.65191 0.70529,-1.30372 1.05859,-1.95508c0.31063,-0.33333 0.52973,-0.66003 0.61523,-0.91016c0.09973,-0.29174 0.04377,-0.22439 0.16211,-0.41211c0,-0.00065 0,-0.0013 0,-0.00195c0.11985,-0.19022 0.33549,-0.43027 0.52344,-0.85352c0.18794,-0.42324 0.25472,-1.03646 0.08594,-1.61914c-0.14259,-0.49212 -0.06981,-1.32615 0.12305,-2.25977c0.19285,-0.93361 0.4813,-1.93952 0.52148,-2.95703c0.01039,-0.26723 -0.08668,-0.5275 -0.26953,-0.72266c-0.24354,-0.25995 -0.43932,-0.30736 -0.57031,-0.35156c-0.0046,-0.32004 0.01693,-0.76868 0.12891,-1.20117c0.06312,-0.24378 0.14014,-0.45311 0.20117,-0.5957c0.12568,-0.023 0.18723,0.0057 0.35547,-0.09961c0.29253,-0.18252 0.47041,-0.50285 0.4707,-0.84766c0,-0.35821 -0.05622,-0.72789 -0.11914,-1.25c-0.06292,-0.52211 -0.13788,-1.13485 -0.19531,-1.7207c-0.05707,-0.5821 -0.09359,-1.14104 -0.08594,-1.50977c0.05694,-0.01093 0.06376,-0.01415 0.12109,-0.02344c0.13061,-0.02116 0.2611,-0.04166 0.38672,-0.06445c0.12562,-0.0228 0.18362,-0.00003 0.4668,-0.13086c0.37175,-0.17224 0.60084,-0.55381 0.57813,-0.96289c-0.01496,-0.27674 -0.06699,-0.45217 -0.16406,-0.6875c-0.04854,-0.11767 -0.10533,-0.24315 -0.22266,-0.39453c-0.1171,-0.1511 -0.31986,-0.39181 -0.75781,-0.45312h-0.00195c-0.14661,-0.02076 -0.52605,-0.09832 -0.85547,-0.16797c-0.01539,-0.05213 -0.02559,-0.0651 -0.03906,-0.16602c-0.04889,-0.36608 -0.03128,-0.9724 0.0332,-1.57812c0.06448,-0.60572 0.16857,-1.22132 0.25781,-1.67969c0.01509,-0.07749 0.02516,-0.11773 0.03906,-0.18555c0.08594,-0.00034 0.12786,-0.00235 0.23633,-0.00195c0.26819,0.0011 0.5847,0.0117 0.98242,-0.10547c0.35799,-0.10546 0.78621,-0.50928 0.98047,-0.99023c0.22363,-0.42418 0.31611,-0.82782 0.33008,-1.20703c0.01703,-0.46264 0.0056,-0.96208 0.0332,-1.52344c0.05523,-1.12272 0.25053,-2.46867 1.08789,-3.9707c0.00065,0 0.0013,0 0.00195,0c0.25141,-0.45157 0.63264,-0.90338 1.00195,-1.14648c0.31255,-0.20574 0.56129,-0.27952 0.86523,-0.21875c0.015,0.02422 0.05613,0.06668 0.26563,0.24609c0.24629,0.21091 0.86027,0.34152 1.20898,0.22266c0.34871,-0.11886 0.54589,-0.28926 0.79688,-0.51172c0.20149,-0.17838 0.32259,-0.43044 0.33594,-0.69922c0.03734,-0.75929 -0.26618,-1.27317 -0.3418,-1.50195c-0.15757,-0.476 -0.21028,-0.8946 -0.19336,-1.26172c0.05262,-1.13767 0.70651,-1.87228 1.68555,-2.22852c0.36714,-0.13359 0.7773,-0.2032 1.20703,-0.19336zM46.9082,18.38477c0.0044,0.0082 0.01579,0.01548 0.01953,0.02344c0.0062,0.01313 0.00271,0.01329 0.00781,0.02539c-0.0084,-0.01661 -0.01753,-0.03176 -0.02734,-0.04883zM45.60352,18.4668c-0.14509,0.06259 -0.107,0.1429 -0.18945,0.22656c0.02641,-0.03759 0.03385,-0.10994 0.05859,-0.13281c0.10941,-0.10116 0.14057,-0.09954 0.13086,-0.09375zM45.2793,19.45508c0.05505,0.06667 0.10193,0.13596 0.1543,0.18359c-0.03183,-0.02742 -0.05361,-0.04024 -0.08594,-0.07422c-0.05401,-0.05677 -0.04096,-0.06455 -0.06836,-0.10937zM49.05664,19.86914c0.04507,0.00965 0.09075,0.01618 0.13672,0.01953c0.00065,0.00065 0.0013,0.0013 0.00195,0.00195h-0.13867zM46.38477,20.30078c-0.0022,0.00093 0.00027,0.00301 -0.00195,0.00391l-0.00586,0.00195c0.0024,-0.001 0.00541,-0.00486 0.00781,-0.00586zM51.83203,22.52734c-0.307,0.00875 -0.62717,0.084 -0.82617,0.25c-0.216,0.182 -0.28845,0.44286 -0.18945,0.75586c-0.03,0.001 -0.06447,0.001 -0.10547,0c-0.11,-0.004 -0.20916,0.03923 -0.28516,0.11523c-0.076,0.075 -0.11914,0.1772 -0.11914,0.2832v0.28906c0,0.002 0.00195,0.00386 0.00195,0.00586h-0.17578c-0.113,0 -0.21992,0.04881 -0.29492,0.13281c-0.075,0.083 -0.11261,0.19464 -0.09961,0.30664c0.057,0.542 0.46544,1.1992 0.77344,1.6582c0.073,0.11 0.19708,0.17383 0.33008,0.17383h0.00195c0.505,-0.002 0.91167,-0.63394 1.38867,-1.46094l0.12109,-0.20508c0.048,-0.077 0.05492,-0.16395 0.04492,-0.25195c0.077,-0.03 0.14736,-0.07448 0.19336,-0.14648c0.295,-0.464 0.55233,-1.35191 -0.01367,-1.75391c-0.145,-0.103 -0.43909,-0.16109 -0.74609,-0.15234zM33.37109,27.0332c-0.00945,0.01345 -0.01857,0.02712 -0.02734,0.04102c-0.00148,0.00015 -0.00439,-0.00015 -0.00586,0c0.01085,-0.01349 0.01476,-0.01723 0.0332,-0.04102zM7.9707,31.14648c-2.73351,0 -4.9707,2.23719 -4.9707,4.9707v11.91211c0,2.73275 2.2372,4.9707 4.9707,4.9707h13.0293c2.73351,0 4.9707,-2.23719 4.9707,-4.9707c-0.00006,-0.55226 -0.44774,-0.99994 -1,-1h-14.9707v-9.91211h14.9707c0.55226,-0.00006 0.99994,-0.44774 1,-1c0,-2.73351 -2.23719,-4.9707 -4.9707,-4.9707zM59,31.14648c-2.73351,0 -4.9707,2.23719 -4.9707,4.9707v3.9707c0,2.73351 2.23719,4.9707 4.9707,4.9707h11v1.9707h-14.9707c-0.55226,0.00006 -0.99994,0.44774 -1,1c0,2.73275 2.23719,4.9707 4.9707,4.9707h13.0293c2.73351,0 4.9707,-2.23719 4.9707,-4.9707v-3.9707c0,-2.73351 -2.23719,-4.9707 -4.9707,-4.9707h-10.98437v-1.9707h14.16016c0.55226,-0.00006 0.99994,-0.44774 1,-1c0,-2.73351 -2.23719,-4.9707 -4.9707,-4.9707zM7.9707,33.14648h13.0293c1.25959,0 2.12311,0.87459 2.55859,1.9707h-14.55859c-0.55226,0.00006 -0.99994,0.44774 -1,1v11.91211c0.00006,0.55226 0.44774,0.99994 1,1h14.56055c-0.43511,1.09692 -1.30037,1.9707 -2.56055,1.9707h-13.0293c-1.65249,0 -2.9707,-1.31946 -2.9707,-2.9707v-11.91211c0,-1.65249 1.31821,-2.9707 2.9707,-2.9707zM59,33.14648h12.23438c1.26017,0 2.12544,0.87378 2.56055,1.9707h-13.75c-0.55226,0.00006 -0.99994,0.44774 -1,1v3.9707h2l-1,1h11.98438c1.65249,0 2.9707,1.31821 2.9707,2.9707v3.9707c0,1.65249 -1.31821,2.9707 -2.9707,2.9707h-13.0293c-1.26017,0 -2.12544,-0.87427 -2.56055,-1.9707h14.56055c0.55226,-0.00006 0.99994,-0.44774 1,-1v-3.9707c-0.00006,-0.55226 -0.44774,-0.99994 -1,-1h-12c-1.65249,0 -2.9707,-1.31821 -2.9707,-2.9707v-3.9707c0,-1.65249 1.31821,-2.9707 2.9707,-2.9707zM5,55c-0.552,0 -1,0.448 -1,1c0,0.552 0.448,1 1,1c0.552,0 1,-0.448 1,-1c0,-0.552 -0.448,-1 -1,-1zM9,55c-0.552,0 -1,0.448 -1,1c0,0.552 0.448,1 1,1c0.552,0 1,-0.448 1,-1c0,-0.552 -0.448,-1 -1,-1zM13,55c-0.552,0 -1,0.448 -1,1c0,0.552 0.448,1 1,1c0.552,0 1,-0.448 1,-1c0,-0.552 -0.448,-1 -1,-1zM17,55c-0.552,0 -1,0.448 -1,1c0,0.552 0.448,1 1,1c0.552,0 1,-0.448 1,-1c0,-0.552 -0.448,-1 -1,-1zM21,55c-0.552,0 -1,0.448 -1,1c0,0.552 0.448,1 1,1c0.552,0 1,-0.448 1,-1c0,-0.552 -0.448,-1 -1,-1zM58,55c-0.552,0 -1,0.448 -1,1c0,0.552 0.448,1 1,1c0.552,0 1,-0.448 1,-1c0,-0.552 -0.448,-1 -1,-1zM62,55c-0.552,0 -1,0.448 -1,1c0,0.552 0.448,1 1,1c0.552,0 1,-0.448 1,-1c0,-0.552 -0.448,-1 -1,-1zM66,55c-0.552,0 -1,0.448 -1,1c0,0.552 0.448,1 1,1c0.552,0 1,-0.448 1,-1c0,-0.552 -0.448,-1 -1,-1zM70,55c-0.552,0 -1,0.448 -1,1c0,0.552 0.448,1 1,1c0.552,0 1,-0.448 1,-1c0,-0.552 -0.448,-1 -1,-1zM74,55c-0.552,0 -1,0.448 -1,1c0,0.552 0.448,1 1,1c0.552,0 1,-0.448 1,-1c0,-0.552 -0.448,-1 -1,-1zM27.08594,60.11328c0.09603,0.17827 0.08984,0.37903 0.22852,0.53711l-0.21094,-0.39062c-0.04616,-0.16584 -0.02233,-0.11984 -0.01758,-0.14648z"></path></g></g></svg>