<?xml version="1.0" encoding="utf-8"?>
<!-- Generator: Adobe Illustrator 26.0.0, SVG Export Plug-In . SVG Version: 6.00 Build 0)  -->
<svg version="1.1" id="Camada_1" xmlns="http://www.w3.org/2000/svg" xmlns:xlink="http://www.w3.org/1999/xlink" x="0px" y="0px"
	 viewBox="0 0 31.4 15.95" style="enable-background:new 0 0 31.4 15.95;" xml:space="preserve">
<style type="text/css">
	.st0{fill-rule:evenodd;clip-rule:evenodd;fill:#FFFFFF;}
</style>
<path class="st0" d="M19.43,3.97C19.41,3.98,19.39,3.99,19.35,4c-0.14,0.2-0.06,0.17-0.3,0.34c0,0.33,0.01,0.37,0.09,0.66
	c0,0.01,0,0.01,0,0.02c0,0.01-0.01,0.01-0.02,0.01c-0.06,0.01-0.15,0.03-0.2,0.04c0,0.01,0.03,0.2,0,0.34
	c-0.04,0.22-0.56,0.7-0.69,0.72c-0.17,0.03-0.37-0.12-0.67-0.25c-0.08-0.04-0.36-0.22-0.51-0.27c-0.12-0.04-0.24,0.25-0.09,0.33
	c0.07,0.04,0.18,0.09,0.22,0.18c0.1,0.27-0.02,1.32-0.23,1.53c-0.1,0-0.19-0.1-0.26-0.07c-0.14,0.07-0.05,0.49,0,0.56
	c0.84,0.86,0.74,1.5,1.09,1.97c0.16,0,0.06,0.17,0.18,0.37c0.03,0.1-0.01,0.28-0.03,0.35c0,0.09,0,0.17,0,0.26
	c-0.01,0.03-0.02,0.05-0.03,0.08c0,0.08,0,0.15,0,0.23c-0.02,0.11-0.05,0.26-0.08,0.36c-0.05,0.22,0.14,0.39,0.03,0.59
	c0,0.13,0,0.1-0.08,0.21c0,0.2-0.05,0.61,0,0.76c0.03,0.1,0.4,0.54,0.5,0.58c0.22,0.1,0.56,0.08,0.45,0.43
	c-0.66,0.2-1.08-0.11-1.43-0.12l-0.02,0.06c-0.22,0-0.4-0.05-0.45-0.07c0-0.06,0.07-0.53,0.1-0.6c0.02-0.04,0.05-0.08,0.08-0.12
	c0.03-0.08-0.03-0.66-0.03-0.82c-0.14-0.1-0.17-0.42-0.17-0.59c-0.04-0.13-0.04-0.29-0.05-0.46c0-0.08-0.05-0.2-0.02-0.3
	c0.02-0.07,0.1-0.1,0.12-0.16c0-0.06,0-0.13,0-0.19c0.04-0.2,0.03-0.3-0.1-0.42c-0.31,0-0.35,0.02-0.52-0.24
	c-0.05-0.08-0.48-0.76-0.52-0.78c-0.36-0.16-0.29-0.1-0.44-0.37c-0.01,0-0.1,0.03-0.19,0.16c-0.13,0.19-0.35,0.81-0.42,1.03
	c-0.04,0.12,0,0.26-0.05,0.36c-0.04,0.07-0.17,0.1-0.19,0.15c-0.13,0.23-0.03,0.21-0.27,0.37c-0.04,0.06-0.04,0.14-0.08,0.21
	c-0.02,0.03-0.04,0.05-0.05,0.08c-0.04,0.09,0.04,0.24,0.03,0.3c-0.04,0.14-0.1,0.28-0.15,0.42c-0.11,0.26-0.1,0.6-0.21,0.76
	c-0.06,0.08-0.19,0-0.29,0.07c-0.01,0.06-0.17,0.43-0.2,0.53c0,0.2,0,0.39,0,0.59c0.03,0.1,0.11,0.19,0.09,0.32
	c-0.03,0.13-0.49,0.13-0.74,0.1c-0.17-0.02-0.22-0.15-0.22-0.29c0-0.17,0.35-1.27,0.33-1.35c-0.26-0.29,0.07-0.6,0.17-0.87
	c0.05-0.13,0.02-0.32,0.07-0.44c0.09-0.17,0.18-0.34,0.28-0.5c0.17-0.16,0.09-0.17,0.18-0.31c0.08-0.12,0.17-0.21,0.12-0.39
	c-0.11-0.38,0.13-0.92,0.15-1.31c-0.04-0.05-0.19-0.03-0.21-0.15c-0.04-0.25,0.09-0.68,0.17-0.72c0.04-0.02,0.08,0,0.11-0.02
	c0-0.18-0.18-1.21-0.04-1.26c0.09-0.03,0.28-0.05,0.32-0.07c0-0.04-0.03-0.14-0.07-0.14c-0.06-0.01-0.19-0.03-0.29-0.06
	c-0.31-0.07-0.02-1.28-0.02-1.29c0.08-0.11,0.48,0.04,0.52-0.15c0.13-0.17-0.1-0.81,0.35-1.6c0.15-0.27,0.44-0.54,0.78-0.42
	c0.11,0.04,0.04,0.2,0.24,0.03c0.01-0.1-0.04-0.19-0.07-0.27c-0.33-0.99,0.79-1.52,1.57-0.96c0.09,0.04,0.14,0.05,0.21,0.1
	c0.04,0.22,0.26,0.62,0.04,0.88c-0.09,0.02-0.2,0.07-0.27,0.12c0,0.09,0.01,0.17,0.03,0.23c0.01,0.05,0.04,0.07-0.03,0.1
	c-0.01,0-0.01,0.03,0,0.05c0.18,0.04,0.38-0.03,0.5-0.08h0.15V3.22h0.07V3.08h0.07v0.25h0.18v0.08h2.7v0.14h0.12V3.03h0.1v0.42h0.23
	v0.24h0.71V3.62h0.12v0.03h0.34v0.2H21.9v0.03h-0.12V3.81h-0.71v0.07c-0.11,0-0.21,0-0.31,0V3.83h-0.13v0.14H19.43z M1.94,8.78h3.7
	c0-0.54-0.44-0.98-0.98-0.98H1.68C1.14,7.8,0.7,8.24,0.7,8.78v2.57c0,0.54,0.44,0.98,0.98,0.98h2.98c0.54,0,0.98-0.44,0.98-0.98
	h-3.7V8.78z M7.59,8.78h3.92c0-0.54-0.44-0.98-0.98-0.98H7.5c-0.54,0-0.98,0.44-0.98,0.98v0.8c0,0.54,0.44,0.98,0.98,0.98h3.04v0.8
	H6.52c0,0.54,0.44,0.98,0.98,0.98h3.14c0.54,0,0.98-0.44,0.98-0.98v-0.8c0-0.54-0.44-0.98-0.98-0.98H7.59V8.78z M20.42,8.78h4.11
	c0-0.54-0.44-0.98-0.98-0.98H20.4c-0.54,0-0.98,0.44-0.98,0.98v2.57c0,0.54,0.44,0.98,0.98,0.98h3.15c0.54,0,0.98-0.44,0.98-0.98
	v-1.7h-3.33v0c0,0.42,0.34,0.76,0.76,0.76h1.64v0.94h-3.17V8.78z M26.48,8.78h2.95v2.57h-2.95V8.78z M17.98,4.51h0.45
	c-0.05,0.07-0.19,0.33-0.28,0.33C18.11,4.79,18,4.62,17.98,4.51z M18.48,4.42h-0.37V4.36c0.1,0,0.16-0.02,0.12-0.11
	c-0.07-0.13,0.23-0.13,0.27-0.1C18.58,4.2,18.53,4.35,18.48,4.42z M29.45,7.8h-2.98c-0.54,0-0.98,0.44-0.98,0.98v2.57
	c0,0.54,0.44,0.98,0.98,0.98h2.98c0.54,0,0.98-0.44,0.98-0.98V8.78C30.43,8.24,29.99,7.8,29.45,7.8z"/>
</svg>
